# xmcd
# 
# Track frame offsets:
#     182
#     59357
#     94157
#     134132
#     191657
#     272957
# 
# Disc length: 4222
# 
# Revision: 1
# Processed by: cddbd v1.5.2PL0 Copyright (c) Steve Scherf et al.
# Submitted via: fre:ac v1.0.31
# 
DISCID=5e107c06
DTITLE=Sergej Rachmaninov - Symphonies 1-3 [CD1]
DYEAR=1996
DGENRE=Klassik
TTITLE0=Rachmaninov - Symphony No.1 d-moll, op.13 - I. Grave - Allegro ma mon troppo
TTITLE1=Rachmaninov - Symphony No.1 d-moll, op.13 - II. Allegro animato
TTITLE2=Rachmaninov - Symphony No.1 d-moll, op.13 - III. Larghetto
TTITLE3=Rachmaninov - Symphony No.1 d-moll, op.13 - IV. Allegro con fuoco
TTITLE4=Rachmaninov - Symphony No.2 e-moll, op.27 - I. Largo - Allegro moderato
TTITLE5=Rachmaninov - Symphony No.2 e-moll, op.27 - II. Allegro molto
EXTD=
EXTT0=
EXTT1=
EXTT2=
EXTT3=
EXTT4=
EXTT5=
PLAYORDER=
